<?xml version="1.0" standalone="no"?>
<!DOCTYPE svg PUBLIC "-//W3C//DTD SVG 20010904//EN"
 "http://www.w3.org/TR/2001/REC-SVG-20010904/DTD/svg10.dtd">
<svg version="1.0" xmlns="http://www.w3.org/2000/svg"
 width="1278.000000pt" height="1280.000000pt" viewBox="0 0 1278.000000 1280.000000"
 preserveAspectRatio="xMidYMid meet">
<g transform="translate(0.000000,1280.000000) scale(0.100000,-0.100000)"
fill="rgba(255, 0, 0, 0.699)" stroke="none">
<path d="M6723 12425 c-70 -19 -118 -45 -184 -96 -205 -162 -383 -428 -645
-964 -118 -241 -203 -431 -534 -1180 -279 -632 -470 -986 -638 -1182 -140
-162 -256 -207 -573 -222 -322 -14 -587 4 -1484 104 -867 96 -1015 108 -1385
109 -335 1 -459 -10 -620 -55 -172 -47 -297 -134 -350 -244 -21 -43 -25 -65
-25 -150 0 -122 24 -204 98 -333 183 -321 482 -631 1357 -1407 831 -737 1109
-1025 1236 -1280 73 -146 78 -234 27 -465 -65 -298 -172 -566 -663 -1665 -329
-736 -452 -1058 -525 -1377 -93 -403 -31 -666 180 -764 181 -83 454 -40 868
137 291 125 571 275 1287 689 825 478 1160 648 1435 728 209 61 318 55 490
-27 272 -129 608 -398 1395 -1116 839 -764 1252 -1072 1590 -1181 68 -22 105
-27 185 -28 94 -1 105 1 166 31 180 89 259 291 259 663 0 327 -55 668 -260
1600 -218 994 -257 1206 -281 1535 -12 173 -8 265 17 375 37 166 215 348 575
588 216 144 420 265 1209 712 723 410 1083 652 1316 885 180 180 244 291 252
437 5 94 -14 157 -69 231 -115 153 -382 277 -774 362 -326 70 -656 115 -1440
195 -547 56 -573 59 -875 101 -577 81 -866 172 -1002 316 -167 180 -304 595
-503 1528 -150 703 -187 873 -241 1092 -189 776 -386 1181 -630 1295 -76 35
-167 44 -241 23z"/>
</g>
</svg>
